PathFileType	4	(X/Y/Z)	T1_P2_NoVision_Movement_1_0-729.trc
DataRate	CameraRate	NumFrames	NumMarkers	Units	OrigDataRate	OrigDataStartFrame	OrigNumFrames
60	60	4	27	m	60	182	729
Frame#	Time	RHip			RKnee			RAnkle			RBigToe			RSmallToe			RHeel			LHip			LKnee			LAnkle			LBigToe			LSmallToe			LHeel			Neck			Head			Nose			RShoulder			RElbow			RWrist			RThumb			RIndex			RPinky			LShoulder			LElbow			LWrist			LThumb			LIndex			LPinky		
		X1	Y1	Z1	X2	Y2	Z2	X3	Y3	Z3	X4	Y4	Z4	X5	Y5	Z5	X6	Y6	Z6	X7	Y7	Z7	X8	Y8	Z8	X9	Y9	Z9	X10	Y10	Z10	X11	Y11	Z11	X12	Y12	Z12	X13	Y13	Z13	X14	Y14	Z14	X15	Y15	Z15	X16	Y16	Z16	X17	Y17	Z17	X18	Y18	Z18	X19	Y19	Z19	X20	Y20	Z20	X21	Y21	Z21	X22	Y22	Z22	X23	Y23	Z23	X24	Y24	Z24	X25	Y25	Z25	X26	Y26	Z26	X27	Y27	Z27
183	3.05	458.73167767078814	3625.9833786264617	543.194557292715	870.2343345695581	3700.963739169809	574.3959650706216	1235.1692409487196	3702.2564797775003	614.4885952948003	1327.8234310116345	3626.559115469655	610.5961123225414	1295.9528057075179	3619.3438363576433	533.5623395119145	1272.3365129181975	3702.0945223286913	630.1464038487101	463.03039506667443	3504.8428277156636	733.4143273152862	883.0330751541757	3551.2549736715023	751.2889938991394	1229.2318029626363	3594.029476808089	737.2377504672545	1331.3832594348378	3555.1836444832793	698.0407719094683	1272.8678101141384	3455.9799823288363	715.4530892907175	1271.3074290957557	3620.952500375774	731.236581851581	-102.00509544022181	3547.422824201222	662.2209583115044	-353.0028470667617	3412.0292991463025	606.8832198511052	-197.27404420080632	3382.746475951597	582.4076733792614	-40.537869337411	3618.404241973147	539.0665051613313	191.79813802757997	3739.1392336683634	485.2979500799407	419.8381898683481	3696.317627896055	409.52850336848456	554.1259245681584	3670.804951608816	413.9007376726617	567.9865047261662	3680.9010729462816	396.15226218183244	545.8487762516695	3670.438270333389	380.56728070639593	-8.652449810117194	3534.2798002065747	846.0298319762823	250.76323049917227	3448.0966127414063	848.3423521861464	495.6273213332703	3426.9353273246415	843.7371095096997	598.2343650092039	3429.122885522768	811.1441381756231	604.7569165229047	3416.2552482868487	822.2593201859735	609.3475946539364	3395.9835705948735	854.0038361154312
184	3.066666666666667	458.56465695042215	3625.967889747948	543.0915156870666	863.8589539410241	3696.2391450214627	572.9521472838042	1235.4486586263763	3702.955478264678	614.8552931394103	1333.7143688492433	3629.260345328007	613.2873612177328	1310.9200689831368	3650.4707577709373	560.5019508692469	1275.7325578363932	3706.4419516719613	638.8456482581123	462.9557067402516	3504.867207685058	733.3687153024756	882.7198772235396	3550.97551132357	751.1731663806066	1226.7481200507762	3598.3878512833035	740.0249109891851	1323.68530516052	3539.710428247774	684.3261979979177	1285.2743904077722	3476.655880741812	722.9416114582423	1271.2303480890464	3620.682768142698	731.4611235177315	-102.06091606340668	3547.33386177455	662.1447502792561	-353.12232526287926	3412.272810517922	607.0684398093706	-197.32042343709946	3382.3778229902305	582.3802788699236	-40.27183355894638	3638.9654091384105	543.99287907538	191.77794459815937	3739.0322548715485	485.3149778115953	423.45543474116363	3691.8876336594763	407.50655596515094	554.3999873774967	3671.0484959960386	413.9204364201255	576.6916490992378	3680.4334922905778	394.8866162626725	554.531406338289	3669.245821498247	379.001127932668	-8.697472784030685	3531.2585345149537	849.4128420176572	250.76133480446015	3448.0249092557806	848.3012803468059	486.0517304559409	3421.4151640526143	840.7987276907688	598.3320337084407	3429.056549675404	811.0536259885438	604.7946745380971	3416.6145390244833	822.3071173178843	609.4534920560011	3398.514537347544	849.2273695371838
185	3.0833333333333335	453.8840226482854	3624.510975721019	542.2813077911607	865.2467979116485	3699.1893851978625	573.1248502984973	1235.2043798646025	3702.646767396235	614.6356152914187	1326.942978142809	3625.315843966124	612.4208590454373	1302.949964733868	3634.225501194658	547.7542731986867	1272.5583321200345	3702.3482233972295	630.3610990996508	458.1646967191161	3503.3382545221148	732.2593680861152	877.9031204535922	3549.7413733226617	750.0364753271026	1229.3387248610295	3594.2868010493944	737.5864996844906	1325.207768505891	3556.336768762675	689.0450109568433	1285.399168913666	3477.21049684264	722.9405366133259	1271.249562119436	3620.7230089178497	731.47439347136	-102.06333567292572	3547.4867220525907	662.4273148114207	-353.11174938136594	3412.2333712847208	607.0616618040526	-196.93010257524287	3382.4163315286373	582.4910492483231	-40.33609124949406	3638.9160453942336	544.0983700110507	191.65904983292978	3739.1628373351787	485.46926071981596	416.51100561339604	3679.787385904176	397.01734416393157	547.2502299851253	3662.6583451389906	399.89464092377	573.3617330933897	3687.3635516684444	392.91683783293706	545.8746711692219	3670.3579920172742	380.9701182718718	-8.703639554974531	3531.0777729416545	849.3819384669426	246.6600784291019	3446.5464299728674	847.3203654559776	485.99995097112634	3421.5730662644746	840.8903433578375	598.1603460495292	3429.5963182927535	811.2356020565583	604.5903509742343	3417.4238864543836	822.6686910000202	609.3242740426978	3398.101169610192	848.7343018075319
186	3.1	453.85032360044596	3624.4359569111334	542.2334997567798	865.4218692273805	3699.2516386834423	573.2919066280803	1235.3131895298732	3702.4537186588805	614.5218881175041	1333.5296151566522	3628.7884281142447	613.0151742797258	1309.4652103960298	3638.141589978559	548.5630762953967	1272.7894317104779	3701.9707314526886	630.1032166353442	458.1879880437304	3503.246510144946	732.2278661324888	878.422839779524	3550.186542451432	750.2243299127522	1236.152770877705	3598.5022551316506	738.5596374354125	1331.418450876123	3560.235815448677	689.9758890554325	1280.1136667394753	3475.475642537999	721.4145656028222	1271.3991881960324	3620.98337554032	731.5813921578963	-102.06666355198932	3547.3352298769905	662.2973515795119	-353.04758995824517	3412.361101731934	607.09790479327	-197.0928855477929	3382.2753241333417	582.4620206976717	-40.257815164636355	3638.844171995309	544.0020184875381	191.75296727971772	3738.945621769296	485.38731852363617	420.08795331677373	3675.1469646845303	394.56936326394873	550.3734375464547	3658.012888595545	397.40337346950895	569.3906896846993	3670.228542194742	379.85807386791055	545.8869243009859	3670.08419773067	380.5402381828211	-8.573629039472811	3534.149546647521	845.9833775097186	246.70474417093547	3446.478684319985	847.2459727491159	490.3000798975377	3422.8501929609606	841.8381307330762	598.2331020025945	3429.3573722679203	811.1832990961113	604.7018378344036	3417.073311509863	822.553508031752	609.3845470273839	3398.236225845316	849.0202470014027
